# xmcd
#
# Track frame offsets:
#  150
#  24621
#  41430
#  70345
#  116002
#  128179
#  153314
#  163607
#  184053
#  202519
#  218481
#  232713
#  256263
#  276492
#  288477
#  311087
#
# Disc length: 4442 seconds
#
# Revision: 0
# Processed by: cddbd v1.5.1PL0 Copyright (c) Steve Scherf et al.
# Submitted via: Collectorz.com Music Collector 6.9
#
DISCID=dc115810
DTITLE=Various Artist - A Celebration Of New Orleans Music To Benefit Musicares Hurrincane Relief 2005
DYEAR=2005
DGENRE=Blues -  Blues New Orleans
TTITLE0=Dirty Dozen Brass Band - Mardi Gras In New Orleans
TTITLE1=Davell Crawford - Something You Got
TTITLE2=Harry Connick Jr. - Branford Marsalis - Good To Be Home
TTITLE3=Irma Thomas - Second Line Medley: I Done Got Over/Iko Iko/Hey Pocky Way
TTITLE4=Al Johnson - Carnival Time
TTITLE5=Bo Dollis And The Wild Magnolias - Meet De Boys On De Battlefront
TTITLE6=Eddie Bo - Check Mr. Popeye
TTITLE7=Rebirth Brass Band - Do Whatcha Wanna
TTITLE8=Jelly Roll Morton - I'm Alabama Bound
TTITLE9=James Booker - Lawdy Miss Clawdy
TTITLE10=Theryl De Clouet - Galactic - I Get Lifted
TTITLE11=New Orleans Nightcrawlers - Keep On Gwine
TTITLE12=Branford Marsalis Quartet - B's Paris Blues
TTITLE13=Professor Longhair - Cuttin' Out
TTITLE14=Walter Wolfman Washington - Funkyard
TTITLE15=Johnny Adams - Aaron Neville - Never Alone
EXTD=
EXTT0=
EXTT1=
EXTT2=
EXTT3=
EXTT4=
EXTT5=
EXTT6=
EXTT7=
EXTT8=
EXTT9=
EXTT10=
EXTT11=
EXTT12=
EXTT13=
EXTT14=
EXTT15=
PLAYORDER=
